<mxfile host="app.diagrams.net" modified="2022-03-23T10:51:55.703Z" agent="5.0 (Macintosh; Intel Mac OS X 10_15_7) AppleWebKit/605.1.15 (KHTML, like Gecko) Version/15.2 Safari/605.1.15" etag="O9y2nUKJZrA0g3uSpoGs" version="17.1.5" type="github">
  <diagram id="aDYR9Rgaz0fvIouL84y2" name="Page-1">
    <mxGraphModel dx="1186" dy="795" grid="1" gridSize="10" guides="1" tooltips="1" connect="1" arrows="1" fold="1" page="1" pageScale="1" pageWidth="827" pageHeight="1169" math="0" shadow="0">
      <root>
        <mxCell id="0" />
        <mxCell id="1" parent="0" />
        <mxCell id="9AvfirIocNMJ0ePVp31a-1" value="DBInterface" style="swimlane;" vertex="1" parent="1">
          <mxGeometry x="580" y="75" width="130" height="110" as="geometry" />
        </mxCell>
        <mxCell id="9AvfirIocNMJ0ePVp31a-2" value="Handle every request&lt;br&gt;&amp;nbsp;to the database" style="text;html=1;align=center;verticalAlign=middle;resizable=0;points=[];autosize=1;strokeColor=none;fillColor=none;" vertex="1" parent="9AvfirIocNMJ0ePVp31a-1">
          <mxGeometry y="35" width="130" height="30" as="geometry" />
        </mxCell>
        <mxCell id="9AvfirIocNMJ0ePVp31a-5" value="" style="edgeStyle=orthogonalEdgeStyle;rounded=0;orthogonalLoop=1;jettySize=auto;html=1;entryX=0.5;entryY=1;entryDx=0;entryDy=0;" edge="1" parent="1" source="9AvfirIocNMJ0ePVp31a-3" target="9AvfirIocNMJ0ePVp31a-1">
          <mxGeometry relative="1" as="geometry">
            <mxPoint x="645" y="195" as="targetPoint" />
          </mxGeometry>
        </mxCell>
        <mxCell id="9AvfirIocNMJ0ePVp31a-3" value="DBAgent" style="swimlane;" vertex="1" parent="1">
          <mxGeometry x="580" y="240" width="130" height="110" as="geometry" />
        </mxCell>
        <mxCell id="9AvfirIocNMJ0ePVp31a-4" value="Implements &lt;br&gt;DBInterface" style="text;html=1;align=center;verticalAlign=middle;resizable=0;points=[];autosize=1;strokeColor=none;fillColor=none;" vertex="1" parent="9AvfirIocNMJ0ePVp31a-3">
          <mxGeometry x="25" y="35" width="80" height="30" as="geometry" />
        </mxCell>
        <mxCell id="9AvfirIocNMJ0ePVp31a-6" value="implements" style="text;html=1;align=center;verticalAlign=middle;resizable=0;points=[];autosize=1;strokeColor=none;fillColor=none;" vertex="1" parent="1">
          <mxGeometry x="640" y="205" width="80" height="20" as="geometry" />
        </mxCell>
        <mxCell id="9AvfirIocNMJ0ePVp31a-7" value="DBResponse&#xa;Formatter" style="swimlane;startSize=30;" vertex="1" parent="1">
          <mxGeometry x="790" y="75" width="130" height="110" as="geometry" />
        </mxCell>
        <mxCell id="9AvfirIocNMJ0ePVp31a-8" value="Transform queries &lt;br&gt;result into Instances&lt;br&gt;of Report" style="text;html=1;align=center;verticalAlign=middle;resizable=0;points=[];autosize=1;strokeColor=none;fillColor=none;" vertex="1" parent="9AvfirIocNMJ0ePVp31a-7">
          <mxGeometry x="5" y="40" width="120" height="50" as="geometry" />
        </mxCell>
        <mxCell id="9AvfirIocNMJ0ePVp31a-9" value="" style="edgeStyle=orthogonalEdgeStyle;rounded=0;orthogonalLoop=1;jettySize=auto;html=1;" edge="1" parent="1" source="9AvfirIocNMJ0ePVp31a-2">
          <mxGeometry relative="1" as="geometry">
            <mxPoint x="790" y="125" as="targetPoint" />
          </mxGeometry>
        </mxCell>
        <mxCell id="9AvfirIocNMJ0ePVp31a-10" value="uses, has" style="text;html=1;align=center;verticalAlign=middle;resizable=0;points=[];autosize=1;strokeColor=none;fillColor=none;" vertex="1" parent="1">
          <mxGeometry x="715" y="125" width="70" height="20" as="geometry" />
        </mxCell>
        <mxCell id="9AvfirIocNMJ0ePVp31a-11" value="Server" style="swimlane;" vertex="1" parent="1">
          <mxGeometry x="90" y="80" width="130" height="110" as="geometry" />
        </mxCell>
        <mxCell id="9AvfirIocNMJ0ePVp31a-12" value="First point of&amp;nbsp;&lt;br&gt;communication with&amp;nbsp;&lt;br&gt;clients&lt;br&gt;(check that inputs are&amp;nbsp;&lt;br&gt;correct)" style="text;html=1;align=center;verticalAlign=middle;resizable=0;points=[];autosize=1;strokeColor=none;fillColor=none;" vertex="1" parent="9AvfirIocNMJ0ePVp31a-11">
          <mxGeometry y="25" width="130" height="80" as="geometry" />
        </mxCell>
        <mxCell id="9AvfirIocNMJ0ePVp31a-13" value="RequestHandler&#xa;Interface" style="swimlane;startSize=30;" vertex="1" parent="1">
          <mxGeometry x="305" y="70" width="130" height="130" as="geometry" />
        </mxCell>
        <mxCell id="9AvfirIocNMJ0ePVp31a-14" value="Process requests&lt;br&gt;(parse data received&lt;br&gt;and check its&amp;nbsp;&lt;br&gt;correctness, send &lt;br&gt;necessary information &lt;br&gt;to the DB entities)" style="text;html=1;align=center;verticalAlign=middle;resizable=0;points=[];autosize=1;strokeColor=none;fillColor=none;" vertex="1" parent="9AvfirIocNMJ0ePVp31a-13">
          <mxGeometry y="30" width="130" height="90" as="geometry" />
        </mxCell>
        <mxCell id="9AvfirIocNMJ0ePVp31a-16" value="" style="edgeStyle=orthogonalEdgeStyle;rounded=0;orthogonalLoop=1;jettySize=auto;html=1;" edge="1" parent="1" source="9AvfirIocNMJ0ePVp31a-12" target="9AvfirIocNMJ0ePVp31a-14">
          <mxGeometry relative="1" as="geometry" />
        </mxCell>
        <mxCell id="9AvfirIocNMJ0ePVp31a-17" value="uses, has" style="text;html=1;align=center;verticalAlign=middle;resizable=0;points=[];autosize=1;strokeColor=none;fillColor=none;" vertex="1" parent="1">
          <mxGeometry x="230" y="125" width="70" height="20" as="geometry" />
        </mxCell>
        <mxCell id="9AvfirIocNMJ0ePVp31a-21" value="" style="edgeStyle=orthogonalEdgeStyle;rounded=0;orthogonalLoop=1;jettySize=auto;html=1;" edge="1" parent="1" source="9AvfirIocNMJ0ePVp31a-18" target="9AvfirIocNMJ0ePVp31a-14">
          <mxGeometry relative="1" as="geometry" />
        </mxCell>
        <mxCell id="9AvfirIocNMJ0ePVp31a-18" value="RequestHandler" style="swimlane;" vertex="1" parent="1">
          <mxGeometry x="305" y="240" width="130" height="110" as="geometry" />
        </mxCell>
        <mxCell id="9AvfirIocNMJ0ePVp31a-19" value="Concrete implementa-&lt;br&gt;lion of the interface" style="text;html=1;align=center;verticalAlign=middle;resizable=0;points=[];autosize=1;strokeColor=none;fillColor=none;" vertex="1" parent="9AvfirIocNMJ0ePVp31a-18">
          <mxGeometry y="35" width="130" height="30" as="geometry" />
        </mxCell>
        <mxCell id="9AvfirIocNMJ0ePVp31a-22" value="implements" style="text;html=1;align=center;verticalAlign=middle;resizable=0;points=[];autosize=1;strokeColor=none;fillColor=none;" vertex="1" parent="1">
          <mxGeometry x="370" y="210" width="80" height="20" as="geometry" />
        </mxCell>
        <mxCell id="9AvfirIocNMJ0ePVp31a-23" value="" style="shape=waypoint;sketch=0;size=6;pointerEvents=1;points=[];fillColor=none;resizable=0;rotatable=0;perimeter=centerPerimeter;snapToPoint=1;" vertex="1" parent="1">
          <mxGeometry x="560" y="125" width="40" height="40" as="geometry" />
        </mxCell>
        <mxCell id="9AvfirIocNMJ0ePVp31a-24" value="" style="edgeStyle=orthogonalEdgeStyle;rounded=0;orthogonalLoop=1;jettySize=auto;html=1;" edge="1" parent="1" source="9AvfirIocNMJ0ePVp31a-14" target="9AvfirIocNMJ0ePVp31a-23">
          <mxGeometry relative="1" as="geometry" />
        </mxCell>
        <mxCell id="9AvfirIocNMJ0ePVp31a-25" value="uses, has" style="text;html=1;align=center;verticalAlign=middle;resizable=0;points=[];autosize=1;strokeColor=none;fillColor=none;" vertex="1" parent="1">
          <mxGeometry x="475" y="120" width="70" height="20" as="geometry" />
        </mxCell>
        <mxCell id="9AvfirIocNMJ0ePVp31a-26" value="DataLine" style="swimlane;" vertex="1" parent="1">
          <mxGeometry x="270" y="510" width="135" height="110" as="geometry" />
        </mxCell>
        <mxCell id="9AvfirIocNMJ0ePVp31a-27" value="Represents a &quot;dataline&quot;&lt;br&gt;of a Report" style="text;html=1;align=center;verticalAlign=middle;resizable=0;points=[];autosize=1;strokeColor=none;fillColor=none;" vertex="1" parent="9AvfirIocNMJ0ePVp31a-26">
          <mxGeometry x="-5" y="35" width="140" height="30" as="geometry" />
        </mxCell>
        <mxCell id="9AvfirIocNMJ0ePVp31a-31" value="" style="edgeStyle=orthogonalEdgeStyle;rounded=0;orthogonalLoop=1;jettySize=auto;html=1;" edge="1" parent="1" source="9AvfirIocNMJ0ePVp31a-28" target="9AvfirIocNMJ0ePVp31a-30">
          <mxGeometry relative="1" as="geometry" />
        </mxCell>
        <mxCell id="9AvfirIocNMJ0ePVp31a-28" value="Report" style="swimlane;" vertex="1" parent="1">
          <mxGeometry x="530" y="510" width="130" height="110" as="geometry" />
        </mxCell>
        <mxCell id="9AvfirIocNMJ0ePVp31a-29" value="Represents a report" style="text;html=1;align=center;verticalAlign=middle;resizable=0;points=[];autosize=1;strokeColor=none;fillColor=none;" vertex="1" parent="9AvfirIocNMJ0ePVp31a-28">
          <mxGeometry x="5" y="40" width="120" height="20" as="geometry" />
        </mxCell>
        <mxCell id="9AvfirIocNMJ0ePVp31a-30" value="" style="shape=waypoint;sketch=0;size=6;pointerEvents=1;points=[];fillColor=default;resizable=0;rotatable=0;perimeter=centerPerimeter;snapToPoint=1;fontStyle=1;startSize=23;" vertex="1" parent="1">
          <mxGeometry x="390" y="545" width="40" height="40" as="geometry" />
        </mxCell>
        <mxCell id="9AvfirIocNMJ0ePVp31a-32" value="has (multiples)" style="text;html=1;align=center;verticalAlign=middle;resizable=0;points=[];autosize=1;strokeColor=none;fillColor=none;" vertex="1" parent="1">
          <mxGeometry x="430" y="545" width="90" height="20" as="geometry" />
        </mxCell>
        <mxCell id="9AvfirIocNMJ0ePVp31a-46" value="" style="edgeStyle=orthogonalEdgeStyle;rounded=0;orthogonalLoop=1;jettySize=auto;html=1;" edge="1" parent="1" source="9AvfirIocNMJ0ePVp31a-35">
          <mxGeometry relative="1" as="geometry">
            <mxPoint x="650" y="565" as="targetPoint" />
          </mxGeometry>
        </mxCell>
        <mxCell id="9AvfirIocNMJ0ePVp31a-35" value="ReportBuilder" style="swimlane;" vertex="1" parent="1">
          <mxGeometry x="770" y="510" width="130" height="110" as="geometry" />
        </mxCell>
        <mxCell id="9AvfirIocNMJ0ePVp31a-36" value="Builder for a Report&lt;br&gt;(allow construction&lt;br&gt;line by line)" style="text;html=1;align=center;verticalAlign=middle;resizable=0;points=[];autosize=1;strokeColor=none;fillColor=none;" vertex="1" parent="9AvfirIocNMJ0ePVp31a-35">
          <mxGeometry x="5" y="35" width="120" height="50" as="geometry" />
        </mxCell>
        <mxCell id="9AvfirIocNMJ0ePVp31a-44" value="" style="shape=waypoint;sketch=0;size=6;pointerEvents=1;points=[];fillColor=none;resizable=0;rotatable=0;perimeter=centerPerimeter;snapToPoint=1;" vertex="1" parent="9AvfirIocNMJ0ePVp31a-35">
          <mxGeometry x="5" y="30" width="40" height="40" as="geometry" />
        </mxCell>
        <mxCell id="9AvfirIocNMJ0ePVp31a-39" value="" style="edgeStyle=orthogonalEdgeStyle;rounded=0;orthogonalLoop=1;jettySize=auto;html=1;" edge="1" parent="1" source="9AvfirIocNMJ0ePVp31a-37">
          <mxGeometry relative="1" as="geometry">
            <mxPoint x="835" y="620" as="targetPoint" />
          </mxGeometry>
        </mxCell>
        <mxCell id="9AvfirIocNMJ0ePVp31a-37" value="TimeSeriesReport&#xa;Builder" style="swimlane;startSize=30;" vertex="1" parent="1">
          <mxGeometry x="770" y="700" width="130" height="110" as="geometry" />
        </mxCell>
        <mxCell id="9AvfirIocNMJ0ePVp31a-38" value="Slight adjustments for&lt;br&gt;correspondance with&lt;br&gt;TimeSeries" style="text;html=1;align=center;verticalAlign=middle;resizable=0;points=[];autosize=1;strokeColor=none;fillColor=none;" vertex="1" parent="9AvfirIocNMJ0ePVp31a-37">
          <mxGeometry y="35" width="130" height="50" as="geometry" />
        </mxCell>
        <mxCell id="9AvfirIocNMJ0ePVp31a-40" value="extends" style="text;html=1;align=center;verticalAlign=middle;resizable=0;points=[];autosize=1;strokeColor=none;fillColor=none;" vertex="1" parent="1">
          <mxGeometry x="830" y="640" width="60" height="20" as="geometry" />
        </mxCell>
        <mxCell id="9AvfirIocNMJ0ePVp31a-47" value="build()" style="text;html=1;align=center;verticalAlign=middle;resizable=0;points=[];autosize=1;strokeColor=none;fillColor=none;" vertex="1" parent="1">
          <mxGeometry x="685" y="545" width="50" height="20" as="geometry" />
        </mxCell>
        <mxCell id="9AvfirIocNMJ0ePVp31a-57" style="edgeStyle=none;rounded=0;orthogonalLoop=1;jettySize=auto;html=1;exitX=0.5;exitY=0;exitDx=0;exitDy=0;" edge="1" parent="1" source="9AvfirIocNMJ0ePVp31a-50">
          <mxGeometry relative="1" as="geometry">
            <mxPoint x="610" y="630" as="targetPoint" />
          </mxGeometry>
        </mxCell>
        <mxCell id="9AvfirIocNMJ0ePVp31a-69" style="edgeStyle=orthogonalEdgeStyle;rounded=0;orthogonalLoop=1;jettySize=auto;html=1;exitX=0.5;exitY=1;exitDx=0;exitDy=0;" edge="1" parent="1" source="9AvfirIocNMJ0ePVp31a-50">
          <mxGeometry relative="1" as="geometry">
            <mxPoint x="340" y="820" as="targetPoint" />
            <Array as="points">
              <mxPoint x="662" y="880" />
              <mxPoint x="340" y="880" />
            </Array>
          </mxGeometry>
        </mxCell>
        <mxCell id="9AvfirIocNMJ0ePVp31a-50" value="TimeSeriesReport" style="swimlane;" vertex="1" parent="1">
          <mxGeometry x="597" y="700" width="130" height="110" as="geometry" />
        </mxCell>
        <mxCell id="9AvfirIocNMJ0ePVp31a-51" value="Represents a report of&lt;br&gt;time series" style="text;html=1;align=center;verticalAlign=middle;resizable=0;points=[];autosize=1;strokeColor=none;fillColor=none;" vertex="1" parent="9AvfirIocNMJ0ePVp31a-50">
          <mxGeometry y="35" width="130" height="30" as="geometry" />
        </mxCell>
        <mxCell id="9AvfirIocNMJ0ePVp31a-52" value="" style="edgeStyle=orthogonalEdgeStyle;rounded=0;orthogonalLoop=1;jettySize=auto;html=1;" edge="1" parent="1" source="9AvfirIocNMJ0ePVp31a-38">
          <mxGeometry relative="1" as="geometry">
            <mxPoint x="730" y="760" as="targetPoint" />
          </mxGeometry>
        </mxCell>
        <mxCell id="9AvfirIocNMJ0ePVp31a-53" value="build()" style="text;html=1;align=center;verticalAlign=middle;resizable=0;points=[];autosize=1;strokeColor=none;fillColor=none;" vertex="1" parent="1">
          <mxGeometry x="727" y="730" width="50" height="20" as="geometry" />
        </mxCell>
        <mxCell id="9AvfirIocNMJ0ePVp31a-56" style="rounded=0;orthogonalLoop=1;jettySize=auto;html=1;exitX=0.5;exitY=0;exitDx=0;exitDy=0;" edge="1" parent="1" source="9AvfirIocNMJ0ePVp31a-54">
          <mxGeometry relative="1" as="geometry">
            <mxPoint x="580" y="630" as="targetPoint" />
          </mxGeometry>
        </mxCell>
        <mxCell id="9AvfirIocNMJ0ePVp31a-54" value="Report" style="swimlane;" vertex="1" parent="1">
          <mxGeometry x="445" y="700" width="130" height="110" as="geometry" />
        </mxCell>
        <mxCell id="9AvfirIocNMJ0ePVp31a-55" value="Represents a report" style="text;html=1;align=center;verticalAlign=middle;resizable=0;points=[];autosize=1;strokeColor=none;fillColor=none;" vertex="1" parent="9AvfirIocNMJ0ePVp31a-54">
          <mxGeometry x="5" y="40" width="120" height="20" as="geometry" />
        </mxCell>
        <mxCell id="9AvfirIocNMJ0ePVp31a-58" value="extends" style="text;html=1;align=center;verticalAlign=middle;resizable=0;points=[];autosize=1;strokeColor=none;fillColor=none;" vertex="1" parent="1">
          <mxGeometry x="640" y="650" width="60" height="20" as="geometry" />
        </mxCell>
        <mxCell id="9AvfirIocNMJ0ePVp31a-59" value="extends" style="text;html=1;align=center;verticalAlign=middle;resizable=0;points=[];autosize=1;strokeColor=none;fillColor=none;" vertex="1" parent="1">
          <mxGeometry x="480" y="650" width="60" height="20" as="geometry" />
        </mxCell>
        <mxCell id="9AvfirIocNMJ0ePVp31a-60" style="edgeStyle=none;rounded=0;orthogonalLoop=1;jettySize=auto;html=1;exitX=0.5;exitY=0;exitDx=0;exitDy=0;" edge="1" parent="1" source="9AvfirIocNMJ0ePVp31a-61">
          <mxGeometry relative="1" as="geometry">
            <mxPoint x="340" y="630" as="targetPoint" />
          </mxGeometry>
        </mxCell>
        <mxCell id="9AvfirIocNMJ0ePVp31a-61" value="TimeSeries" style="swimlane;" vertex="1" parent="1">
          <mxGeometry x="282" y="700" width="130" height="110" as="geometry" />
        </mxCell>
        <mxCell id="9AvfirIocNMJ0ePVp31a-63" style="rounded=0;orthogonalLoop=1;jettySize=auto;html=1;exitX=0.5;exitY=0;exitDx=0;exitDy=0;" edge="1" parent="1" source="9AvfirIocNMJ0ePVp31a-64">
          <mxGeometry relative="1" as="geometry">
            <mxPoint x="265" y="630" as="targetPoint" />
          </mxGeometry>
        </mxCell>
        <mxCell id="9AvfirIocNMJ0ePVp31a-64" value="DailyDataLine" style="swimlane;" vertex="1" parent="1">
          <mxGeometry x="130" y="700" width="130" height="110" as="geometry" />
        </mxCell>
        <mxCell id="9AvfirIocNMJ0ePVp31a-65" value="Represents a report" style="text;html=1;align=center;verticalAlign=middle;resizable=0;points=[];autosize=1;strokeColor=none;fillColor=none;" vertex="1" parent="9AvfirIocNMJ0ePVp31a-64">
          <mxGeometry x="5" y="40" width="120" height="20" as="geometry" />
        </mxCell>
        <mxCell id="9AvfirIocNMJ0ePVp31a-66" value="extends" style="text;html=1;align=center;verticalAlign=middle;resizable=0;points=[];autosize=1;strokeColor=none;fillColor=none;" vertex="1" parent="1">
          <mxGeometry x="345" y="650" width="60" height="20" as="geometry" />
        </mxCell>
        <mxCell id="9AvfirIocNMJ0ePVp31a-67" value="extends" style="text;html=1;align=center;verticalAlign=middle;resizable=0;points=[];autosize=1;strokeColor=none;fillColor=none;" vertex="1" parent="1">
          <mxGeometry x="165" y="650" width="60" height="20" as="geometry" />
        </mxCell>
        <mxCell id="9AvfirIocNMJ0ePVp31a-70" value="has" style="text;html=1;align=center;verticalAlign=middle;resizable=0;points=[];autosize=1;strokeColor=none;fillColor=none;" vertex="1" parent="1">
          <mxGeometry x="490" y="860" width="30" height="20" as="geometry" />
        </mxCell>
        <mxCell id="9AvfirIocNMJ0ePVp31a-71" value="Status" style="swimlane;" vertex="1" parent="1">
          <mxGeometry x="35" y="480" width="130" height="110" as="geometry" />
        </mxCell>
        <mxCell id="9AvfirIocNMJ0ePVp31a-72" value="Represents a type&lt;br&gt;of report(deaths,&lt;br&gt;confirmed, ...)" style="text;html=1;align=center;verticalAlign=middle;resizable=0;points=[];autosize=1;strokeColor=none;fillColor=none;" vertex="1" parent="9AvfirIocNMJ0ePVp31a-71">
          <mxGeometry x="10" y="25" width="110" height="50" as="geometry" />
        </mxCell>
        <mxCell id="9AvfirIocNMJ0ePVp31a-74" value="Data Representation" style="swimlane;" vertex="1" parent="1">
          <mxGeometry x="10" y="440" width="1090" height="470" as="geometry" />
        </mxCell>
        <mxCell id="9AvfirIocNMJ0ePVp31a-77" value="data package" style="text;html=1;align=center;verticalAlign=middle;resizable=0;points=[];autosize=1;strokeColor=none;fillColor=none;" vertex="1" parent="9AvfirIocNMJ0ePVp31a-74">
          <mxGeometry x="280" y="30" width="90" height="20" as="geometry" />
        </mxCell>
        <mxCell id="9AvfirIocNMJ0ePVp31a-78" value="report package" style="text;html=1;align=center;verticalAlign=middle;resizable=0;points=[];autosize=1;strokeColor=none;fillColor=none;" vertex="1" parent="9AvfirIocNMJ0ePVp31a-74">
          <mxGeometry x="445" y="30" width="100" height="20" as="geometry" />
        </mxCell>
        <mxCell id="9AvfirIocNMJ0ePVp31a-75" value="" style="endArrow=none;dashed=1;html=1;dashPattern=1 3;strokeWidth=2;rounded=0;" edge="1" parent="1">
          <mxGeometry width="50" height="50" relative="1" as="geometry">
            <mxPoint x="420" y="910" as="sourcePoint" />
            <mxPoint x="420" y="460" as="targetPoint" />
          </mxGeometry>
        </mxCell>
        <mxCell id="9AvfirIocNMJ0ePVp31a-76" value="" style="endArrow=classic;startArrow=classic;html=1;rounded=0;" edge="1" parent="1">
          <mxGeometry width="50" height="50" relative="1" as="geometry">
            <mxPoint x="380" y="480" as="sourcePoint" />
            <mxPoint x="450" y="480" as="targetPoint" />
          </mxGeometry>
        </mxCell>
        <mxCell id="9AvfirIocNMJ0ePVp31a-79" value="Database Interface" style="swimlane;" vertex="1" parent="1">
          <mxGeometry x="545" y="10" width="475" height="370" as="geometry" />
        </mxCell>
        <mxCell id="9AvfirIocNMJ0ePVp31a-80" value="Server Interface" style="swimlane;" vertex="1" parent="1">
          <mxGeometry x="55" y="10" width="415" height="370" as="geometry" />
        </mxCell>
      </root>
    </mxGraphModel>
  </diagram>
</mxfile>
